<?xml version="1.0" encoding="UTF-8"?>
<!DOCTYPE svg PUBLIC "-//W3C//DTD SVG 1.1//EN" "http://www.w3.org/Graphics/SVG/1.1/DTD/svg11.dtd">
<!-- Creator: CorelDRAW 2019 (64-Bit) -->
<svg xmlns="http://www.w3.org/2000/svg" xml:space="preserve" width="142.875mm" height="37.0416mm" version="1.1" style="shape-rendering:geometricPrecision; text-rendering:geometricPrecision; image-rendering:optimizeQuality; fill-rule:evenodd; clip-rule:evenodd"
viewBox="0 0 14287.5 3704.16"
 xmlns:xlink="http://www.w3.org/1999/xlink"
 xmlns:xodm="http://www.corel.com/coreldraw/odm/2003">
 <defs>
  <style type="text/css">
   <![CDATA[
    .fil0 {fill:#09678C;fill-rule:nonzero}
    .fil1 {fill:#A2AD16;fill-rule:nonzero}
   ]]>
  </style>
 </defs>
 <g id="Layer_x0020_1">
  <metadata id="CorelCorpID_0Corel-Layer"/>
  <path class="fil0" d="M8472.63 1435.14c-4.45,-292.1 -142.7,-443.71 -445.92,-443.71 -403.66,0 -465.98,292.06 -465.98,439.19 0,584.22 751.38,323.36 751.38,773.62 0,169.47 -120.44,281 -276.54,281 -287.65,0 -298.72,-191.71 -298.72,-370.08l-196.24 0c0,338.84 109.23,530.67 481.64,530.67 225.17,0 494.96,-104.78 494.96,-472.74 0,-581.91 -751.32,-314.36 -751.32,-762.5 0,-169.47 98.02,-258.64 262.99,-258.64 187.32,0 247.47,115.94 247.47,283.19l196.28 0zm349.55 456.98l0 -44.51c0,-71.39 22.31,-312.17 218.54,-312.17 164.99,0 207.33,158.34 207.33,292.05l0 64.63 -425.87 0zm622.1 147.22l0 -75.84c0,-256.36 -33.45,-575.17 -399.15,-575.17 -367.82,0 -425.85,345.62 -425.85,644.32 0,410.23 122.65,613.18 414.7,613.18 325.58,0 401.35,-296.6 401.35,-423.62l-187.28 0c0,89.13 -24.5,276.39 -202.92,276.39 -229.62,0 -229.62,-276.39 -229.62,-459.26l628.77 0zm123.65 575.22l187.28 0 0 -755.83c0,-198.4 151.63,-283.12 245.33,-283.12 60.15,0 82.46,6.66 100.27,8.9l0 -182.82c-17.81,-8.91 -44.6,-13.36 -82.46,-13.36 -133.8,0 -205.11,95.86 -258.67,209.59l-4.47 0 0 -178.42 -187.28 0 0 1195.06zm877.35 0l214.07 0 323.29 -1195.06 -205.11 0 -223.02 958.78 -4.41 0 -223.02 -958.78 -205.11 0 323.31 1195.06zm620.73 0l187.27 0 0 -1194.99 -187.27 0 0 1194.99zm0 -1377.89l187.27 0 0 -214.07 -187.27 0 0 214.07zm1118.34 546.24c0,-138.25 -55.74,-394.58 -381.25,-394.58 -367.89,0 -425.85,345.62 -425.85,644.32 0,410.23 122.59,613.18 414.71,613.18 298.72,0 392.39,-256.43 392.39,-445.93l-187.28 0c0,129.26 -35.74,298.7 -196.25,298.7 -225.14,0 -227.4,-312.15 -227.4,-468.16 0,-437.02 118.17,-495 234.09,-495 142.75,0 189.56,131.58 189.56,247.47l187.28 0zm282.94 109.21l0 -44.51c0,-71.39 22.29,-312.17 218.45,-312.17 164.99,0 207.4,158.34 207.4,292.05l0 64.63 -425.85 0zm622.01 147.22l0 -75.84c0,-256.36 -33.45,-575.17 -399.08,-575.17 -367.89,0 -425.85,345.62 -425.85,644.32 0,410.23 122.65,613.18 414.71,613.18 325.5,0 401.34,-296.6 401.34,-423.62l-187.28 0c0,89.13 -24.57,276.39 -202.92,276.39 -229.69,0 -229.69,-276.39 -229.69,-459.26l628.77 0zm836.98 -269.79c-2.28,-140.46 -15.62,-381.22 -363.41,-381.22 -207.4,0 -381.25,106.98 -381.25,329.93 0,247.46 149.35,289.91 294.31,338.87 144.87,49.03 292.05,82.51 292.05,243.07 0,169.47 -138.22,198.4 -198.44,198.4 -182.81,0 -222.95,-131.56 -222.95,-276.39l-187.28 0c0,122.57 4.47,423.62 410.23,423.62 222.92,0 385.72,-122.73 385.72,-374.66 0,-236.28 -147.15,-287.57 -292.05,-336.6 -147.16,-49.12 -294.31,-75.84 -294.31,-216.31 0,-167.23 133.73,-182.82 193.97,-182.82 136.01,0 176.13,82.46 176.13,234.11l187.28 0z"/>
  <path class="fil1" d="M370.71 2614.56l205.11 0 118.23 -437.01 508.26 0 113.7 437.01 205.14 0 -428.04 -1591.86 -263.07 0 -459.33 1591.86zm584.17 -1366.77l4.48 0 202.85 769.29 -428.09 0 220.76 -769.29zm865.08 608.72l234.12 0c171.61,0 312.1,84.63 312.1,303.22 0,153.83 -71.27,294.36 -278.69,294.36l-267.53 0 0 -597.58zm-196.18 758.05l432.54 0c332.15,0 514.98,-131.53 514.98,-454.83 0,-196.23 -86.92,-345.6 -283.17,-392.41l0 -4.46c144.96,-42.36 231.9,-187.25 231.9,-332.17 0,-310 -200.64,-407.99 -408.04,-407.99l-488.21 0 0 1591.86zm196.18 -1431.39l220.76 0c191.73,0 274.22,95.86 274.22,260.85 0,245.24 -187.3,265.34 -269.77,265.34l-225.21 0 0 -526.19zm784.17 1431.39l205.09 0 118.18 -437.01 508.31 0 113.72 437.01 205.12 0 -428.04 -1591.86 -263.1 0 -459.28 1591.86zm584.15 -1366.77l4.38 0 202.95 769.29 -428.09 0 220.76 -769.29zm1383.64 820.53c-6.67,193.95 -40.1,416.92 -278.7,416.92 -272,0 -307.69,-298.7 -307.69,-666.66 0,-367.87 35.69,-666.59 307.69,-666.59 202.9,0 260.89,153.83 265.36,334.33l205.12 0c-8.91,-312.06 -144.9,-494.96 -470.48,-494.96 -439.23,0 -512.78,425.9 -512.78,827.22 0,401.4 60.22,827.13 512.78,827.13 347.87,0 465.98,-276.34 483.9,-577.39l-205.2 0zm333.53 73.63c0,327.63 147.18,503.76 466,503.76 312.15,0 468.26,-198.28 468.26,-503.76l0 -1119.25 -196.26 0 0 1119.25c0,222.85 -62.39,343.29 -272,343.29 -193.95,0 -269.76,-109.2 -269.76,-343.29l0 -1119.25 -196.24 0 0 1119.25zm2006.46 -706.88c-4.45,-292.03 -142.77,-443.71 -445.97,-443.71 -403.54,0 -465.95,292.13 -465.95,439.33 0,584.06 751.36,323.29 751.36,773.67 0,169.46 -120.39,280.88 -276.43,280.88 -287.65,0 -298.79,-191.8 -298.79,-370.08l-196.17 0c0,338.93 109.23,530.55 481.53,530.55 225.26,0 494.95,-104.75 494.95,-472.62 0,-581.91 -751.33,-314.36 -751.33,-762.5 0,-169.47 98.05,-258.6 263.07,-258.6 187.26,0 247.52,115.9 247.52,283.08l196.21 0z"/>
 </g>
</svg>
