<?xml version="1.0" encoding="UTF-8"?> <svg xmlns="http://www.w3.org/2000/svg" width="270.966" height="48.698" viewBox="0 0 270.966 48.698"><g id="Group_6154" data-name="Group 6154" transform="translate(8667.597 4230.8)"><path id="Path_2715" data-name="Path 2715" d="M110.616,24.29A24.522,24.522,0,0,0,88.684,0V10.848a13.672,13.672,0,0,1-2.476,27.12H61.8V48.7H86.208A24.533,24.533,0,0,0,110.616,24.29" transform="translate(-8729.396 -4230.8)" fill="#00648a"></path><path id="Path_2716" data-name="Path 2716" d="M83.732,10.848V0A24.427,24.427,0,0,0,61.8,24.29V32.9H72.53V24.29a13.675,13.675,0,0,1,11.2-13.442" transform="translate(-8729.396 -4230.8)" fill="#a2ac00"></path><path id="Path_2717" data-name="Path 2717" d="M162.93,79.146c0,1.662,1.278,2.3,2.684,2.3s2.684-.511,2.684-2.173c0-1.15-.895-1.534-1.789-1.789s-1.789-.383-1.789-.767.383-.511.767-.511c.511,0,1.023.128,1.023.767h1.662c0-1.406-1.278-2.045-2.556-2.045-1.15,0-2.556.511-2.556,1.917,0,1.15.895,1.534,1.789,1.789s1.789.383,1.789.895-.511.639-1.023.639c-.639,0-1.15-.256-1.15-1.023Zm-1.15-4.218h-5.368v1.406h1.917v4.857h1.662V76.334h1.917V74.928Zm-12.27,6.391h1.534V77.356h0l2.173,3.962h1.662V75.056h-1.534V78.89h0l-2.173-3.834h-1.662Zm-7.669,0H143.5l.383-1.15h2.173l.383,1.15H148.1l-2.3-6.263h-1.662Zm3.2-4.6h0l.767,2.173H144.4Zm-3.323-1.789h-5.368v1.406h1.917v4.857h1.662V76.334h1.917V74.928Zm-12.27,6.391h1.534V77.356h0l2.173,3.962h1.662V75.056h-1.534V78.89h0L131.1,75.056h-1.662Zm-1.917-6.391h-1.662v3.834c0,.767-.256,1.278-1.15,1.278s-1.15-.383-1.15-1.278V74.928h-1.534v3.707a2.372,2.372,0,0,0,2.684,2.684c1.917,0,2.684-.895,2.684-2.684V74.928Zm-11.631,3.2c0-.895.383-1.917,1.406-1.917s1.406.895,1.406,1.917-.383,1.917-1.406,1.917-1.406-1.023-1.406-1.917m-1.662,0a3.091,3.091,0,0,0,3.068,3.323,3.334,3.334,0,0,0,0-6.646,3.091,3.091,0,0,0-3.068,3.323m-1.278-.895c0-1.534-1.534-2.428-2.94-2.428a3.326,3.326,0,0,0,0,6.646,2.662,2.662,0,0,0,2.94-2.556h-1.662c0,.767-.511,1.15-1.278,1.15-1.023,0-1.406-.895-1.406-1.917s.383-1.917,1.406-1.917a1.245,1.245,0,0,1,1.278,1.023Zm-7.413,0c0-1.534-1.534-2.428-2.94-2.428a3.326,3.326,0,0,0,0,6.646,2.662,2.662,0,0,0,2.94-2.556h-1.662c0,.767-.511,1.15-1.278,1.15-1.023,0-1.406-.895-1.406-1.917s.383-1.917,1.406-1.917a1.245,1.245,0,0,1,1.278,1.023Zm-13.165,4.09h1.662l.383-1.15h2.173l.383,1.15h1.662l-2.3-6.263H94.676Zm3.2-4.6h0l.767,2.173H94.932Zm-11.887-.383h.767c1.15,0,1.789.511,1.789,1.662,0,1.278-.511,1.789-1.789,1.789h-.767ZM82.15,81.319h2.684a2.86,2.86,0,0,0,3.068-3.2,2.822,2.822,0,0,0-3.068-3.068H82.15Zm-6.9,0h5.113V79.913H76.91v-1.15h3.068V77.484H76.91v-1.15h3.323V75.056H75.248Zm-5.624-4.985H70.9c.511,0,.895.256.895.639a.678.678,0,0,1-.767.767H69.624ZM68.09,81.319h1.534v-2.3H70.9c.767,0,.895.639.895,1.278a3.177,3.177,0,0,0,.128,1.023h1.662c-.128-.256-.128-1.15-.256-1.534,0-.639-.256-1.406-.895-1.534h0a1.661,1.661,0,0,0,1.023-1.534c0-1.278-1.15-1.789-2.173-1.789h-3.2Zm-6.9,0H66.3V79.913H62.85v-1.15h3.068V77.484H62.85v-1.15h3.323V75.056H61.188Zm-1.406-6.391H54.414v1.406h1.917v4.857h1.662V76.334H59.91V74.928ZM49.3,76.334H50.58c.511,0,.895.256.895.639a.678.678,0,0,1-.767.767H49.3V76.334ZM47.64,81.319H49.3v-2.3H50.58c.767,0,.895.639.895,1.278a3.177,3.177,0,0,0,.128,1.023h1.662c-.256-.256-.256-1.15-.256-1.534,0-.639-.256-1.406-.895-1.534h0a1.661,1.661,0,0,0,1.023-1.534c0-1.278-1.15-1.789-2.173-1.789h-3.2v6.391Zm-7.669,0h1.662l.383-1.15h2.173l.383,1.15h1.662l-2.3-6.263H42.272Zm3.2-4.6h0l.767,2.173H42.527Zm-9.97,4.6h1.662V78.762h2.173v2.556h1.662V75.056H37.031v2.3H34.858v-2.3H33.2Zm-1.662-4.09c0-1.534-1.534-2.428-2.94-2.428a3.326,3.326,0,0,0,0,6.646,2.662,2.662,0,0,0,2.94-2.556H30c0,.767-.511,1.15-1.278,1.15-1.023,0-1.406-.895-1.406-1.917s.383-1.917,1.406-1.917A1.245,1.245,0,0,1,30,77.229Z" transform="translate(-8630.883 -4274.157)" fill="#a2ac00"></path><path id="Path_2718" data-name="Path 2718" d="M147.055,87.346c0,1.662,1.278,2.3,2.684,2.3s2.684-.511,2.684-2.173c0-1.15-.895-1.534-1.789-1.789s-1.789-.383-1.789-.767.383-.511.767-.511c.511,0,1.023.128,1.023.767H152.3c0-1.406-1.278-2.045-2.556-2.045-1.15,0-2.556.511-2.556,1.917,0,1.15.895,1.534,1.789,1.789s1.789.383,1.789.895-.511.639-1.023.639c-.639,0-1.15-.256-1.15-1.023Zm-5.24-2.94h1.278c.511,0,.895.256.895.639a.678.678,0,0,1-.767.767h-1.406Zm-1.662,4.985h1.662v-2.3h1.278c.767,0,.895.639.895,1.278a3.176,3.176,0,0,0,.128,1.023h1.662c-.256-.256-.256-1.15-.256-1.406,0-.639-.256-1.406-.895-1.534h0a1.661,1.661,0,0,0,1.023-1.534c0-1.278-1.15-1.789-2.173-1.789h-3.2v6.263Zm-6.774,0h5.113V87.985h-3.451v-1.15h3.068V85.556h-3.068v-1.15h3.323V83.128h-4.985Zm-7.158-2.045c0,1.662,1.278,2.3,2.684,2.3s2.684-.511,2.684-2.173c0-1.15-.895-1.534-1.789-1.789s-1.789-.383-1.789-.767.383-.511.767-.511c.511,0,1.023.128,1.023.767h1.662c0-1.406-1.278-2.045-2.556-2.045-1.15,0-2.556.511-2.556,1.917,0,1.15.895,1.534,1.789,1.789s1.789.383,1.789.895-.511.639-1.023.639c-.639,0-1.15-.256-1.15-1.023Zm-3.2,2.045h1.662V83.128h-1.662Zm-1.278-6.263h-1.662l-1.278,4.729h0l-1.278-4.729h-1.662l2.045,6.263h1.917Zm-10.864,1.406h.767c1.15,0,1.789.511,1.789,1.662,0,1.278-.511,1.789-1.789,1.789h-.767Zm-1.662,4.857h2.684a2.86,2.86,0,0,0,3.068-3.2,2.822,2.822,0,0,0-3.068-3.068h-2.684Zm-7.669,0h1.662l.383-1.15h2.173l.383,1.15h1.662l-2.3-6.263h-1.662Zm3.2-4.474h0l.767,2.173h-1.406ZM91.839,87.346c0,1.662,1.278,2.3,2.684,2.3s2.684-.511,2.684-2.173c0-1.15-.895-1.534-1.789-1.789s-1.789-.383-1.789-.767.383-.511.767-.511c.511,0,1.023.128,1.023.767h1.662c0-1.406-1.278-2.045-2.556-2.045-1.15,0-2.556.511-2.556,1.917,0,1.15.895,1.534,1.789,1.789s1.789.383,1.789.895-.511.639-1.023.639c-.639,0-1.15-.256-1.15-1.023Zm-6.774,0c0,1.662,1.278,2.3,2.684,2.3s2.684-.511,2.684-2.173c0-1.15-.895-1.534-1.789-1.789s-1.789-.383-1.789-.767.383-.511.767-.511c.511,0,1.023.128,1.023.767h1.662c0-1.406-1.278-2.045-2.556-2.045-1.15,0-2.556.511-2.556,1.917,0,1.15.895,1.534,1.789,1.789s1.789.383,1.789.895-.511.639-1.023.639c-.639,0-1.15-.256-1.15-1.023Zm-6.519,2.045h5.113V87.985H80.208v-1.15h3.068V85.556H80.208v-1.15h3.323V83.128H78.546Zm-7.285,0h1.534V85.429h0l2.173,3.962h1.662V83.128H75.1v3.834h0l-2.173-3.834H71.261Zm-3.579,0h1.662V83.128H67.682Zm-7.03-2.045c0,1.662,1.278,2.3,2.684,2.3s2.684-.511,2.684-2.173c0-1.15-.895-1.534-1.789-1.789s-1.789-.383-1.789-.767.383-.511.767-.511c.511,0,1.023.128,1.023.767h1.662c0-1.406-1.278-2.045-2.556-2.045-1.15,0-2.556.511-2.556,1.917,0,1.15.895,1.534,1.789,1.789s1.789.383,1.789.895-.511.639-1.023.639c-.639,0-1.15-.256-1.15-1.023Zm-1.534-4.218H57.456v3.834c0,.767-.256,1.278-1.15,1.278-.767,0-1.15-.383-1.15-1.278V83.128H53.494v3.707a2.372,2.372,0,0,0,2.684,2.684c1.917,0,2.684-.895,2.684-2.684V83.128ZM48.126,84.406H49.4c.383,0,.639.128.639.639a.6.6,0,0,1-.639.639H48.126Zm-1.662,4.985h3.068c1.406,0,2.429-.511,2.429-1.917a1.541,1.541,0,0,0-1.023-1.534,1.406,1.406,0,0,0,.767-1.278c0-1.278-1.15-1.534-2.3-1.534h-2.94v6.263Zm1.662-2.684H49.4c.511,0,.895.128.895.767,0,.511-.383.767-.895.767H48.126ZM38.284,85.3a1.1,1.1,0,0,1-.383-.767.55.55,0,0,1,.511-.511.468.468,0,0,1,.511.511.81.81,0,0,1-.639.767m1.789,4.09h1.789l-1.278-1.534a2.358,2.358,0,0,0,.639-1.534H39.946c0,.256-.128.383-.256.639l-.639-.767a1.661,1.661,0,0,0,1.023-1.534,1.8,1.8,0,0,0-3.579-.128,1.62,1.62,0,0,0,.511,1.15c-.767.383-1.406.895-1.406,1.789a1.991,1.991,0,0,0,2.045,1.917,2.771,2.771,0,0,0,1.789-.639ZM38.8,87.857a1.294,1.294,0,0,1-.895.511.845.845,0,0,1-.895-.767c0-.383.383-.639.767-.767Z" transform="translate(-8641.083 -4271.877)" fill="#a2ac00"></path><g id="Group_3545" data-name="Group 3545" transform="translate(-8605.482 -4230.8)"><path id="Path_2719" data-name="Path 2719" d="M201.4,59.4c0-1.662-.128-4.474-4.346-4.474-2.428,0-4.474,1.278-4.474,3.962,0,2.94,1.789,3.451,3.451,4.09s3.451,1.023,3.451,2.94a2.15,2.15,0,0,1-2.3,2.3c-2.173,0-2.684-1.534-2.684-3.323h-2.173c0,1.406,0,4.985,4.857,4.985,2.684,0,4.6-1.406,4.6-4.474,0-2.812-1.789-3.451-3.451-3.962-1.789-.639-3.451-.895-3.451-2.556a1.994,1.994,0,0,1,2.3-2.173c1.662,0,2.045,1.023,2.045,2.812H201.4Zm-9.97,3.2V61.7c0-3.068-.383-6.774-4.729-6.774s-5.113,4.09-5.113,7.669c0,4.857,1.406,7.285,4.985,7.285,3.834,0,4.729-3.579,4.729-4.985h-2.173c0,1.023-.256,3.323-2.428,3.323-2.684,0-2.684-3.323-2.684-5.5h7.413Zm-7.413-1.789V60.3c0-.895.256-3.707,2.556-3.707,1.917,0,2.429,1.917,2.429,3.451v.767Zm-7.286-5.5h-2.045V57.1h2.045v9.842c0,1.917.511,2.812,2.812,2.812.895,0,1.534-.128,1.789-.128V67.839c-.256,0-.511.128-1.023.128-1.15,0-1.406-.511-1.406-1.534V57.358h2.428V55.568h-2.428v-4.09h-2.173v3.834Zm-5.113,10.1a2.907,2.907,0,0,1-2.812,2.684c-1.534,0-2.045-1.023-2.045-2.428a2.319,2.319,0,0,1,1.15-2.3c1.023-.639,2.94-.767,3.834-1.662V65.41Zm-4.6-5.88V59.4c0-.511,0-2.812,2.428-2.812,1.534,0,2.3.767,2.3,2.045,0,1.15,0,1.662-1.662,2.173l-2.94.895c-1.789.511-2.684,1.917-2.684,3.962,0,2.556,1.278,4.09,3.834,4.09a4.193,4.193,0,0,0,3.451-2.045h0c.128,1.789,1.15,1.789,2.045,1.789.511,0,1.15-.128,1.278-.128V67.839c-.128.128-.256.128-.511.128-.639,0-.639-.511-.639-1.15V58.891c0-1.534,0-4.09-4.346-4.09-3.451,0-4.729,1.406-4.729,4.6h2.173Zm-6.135-6.391h2.173V50.583h-2.173Zm0,16.36h2.173V55.313h-2.173Zm-1.406-9.97c0-1.662-.639-4.729-4.474-4.729-4.346,0-5.113,4.09-5.113,7.669,0,4.857,1.406,7.286,4.985,7.286s4.6-3.068,4.6-5.24h-2.173c0,1.534-.383,3.579-2.3,3.579-2.684,0-2.684-3.707-2.684-5.624,0-5.24,1.406-5.88,2.812-5.88,1.662,0,2.3,1.534,2.3,2.94h2.045Zm-15.594,8.564c-2.3,0-2.684-2.684-2.684-5.752s.511-5.752,2.684-5.752c2.429,0,2.812,2.684,2.812,5.752s-.511,5.752-2.812,5.752m-5.113-5.752c0,3.962,1.023,7.413,5.113,7.413S149,66.3,149,62.343s-1.023-7.413-5.113-7.413-5.113,3.451-5.113,7.413M137.75,59.4c0-1.662-.128-4.474-4.346-4.474-2.428,0-4.474,1.278-4.474,3.962,0,2.94,1.789,3.451,3.451,4.09s3.451,1.023,3.451,2.94a2.15,2.15,0,0,1-2.3,2.3c-2.173,0-2.684-1.534-2.684-3.323h-2.173c0,1.406,0,4.985,4.857,4.985,2.684,0,4.6-1.406,4.6-4.474,0-2.812-1.789-3.451-3.451-3.962-1.789-.639-3.451-.895-3.451-2.556a1.994,1.994,0,0,1,2.3-2.173c1.662,0,2.045,1.023,2.045,2.812h2.173Zm-10.225,0c0-1.662-.128-4.474-4.346-4.474-2.428,0-4.474,1.278-4.474,3.962,0,2.94,1.789,3.451,3.451,4.09s3.451,1.023,3.451,2.94a2.15,2.15,0,0,1-2.3,2.3c-2.173,0-2.684-1.534-2.684-3.323H118.45c0,1.406,0,4.985,4.857,4.985,2.684,0,4.6-1.406,4.6-4.474,0-2.812-1.789-3.451-3.451-3.962-1.789-.639-3.451-.895-3.451-2.556a1.994,1.994,0,0,1,2.3-2.173c1.662,0,2.045,1.023,2.045,2.812h2.173Zm-15.977-6.135h0l2.429,9.2h-5.113ZM104.518,69.5h2.428l1.406-5.24h6.007l1.406,5.24h2.428l-5.113-18.917h-3.068ZM94.8,55.313H92.631V57.1h2.045v9.842c0,1.917.511,2.812,2.812,2.812.895,0,1.534-.128,1.789-.128V67.839c-.256,0-.511.128-1.023.128-1.15,0-1.406-.511-1.406-1.534V57.358h2.429V55.568H96.849v-4.09H94.676v3.834ZM82.534,69.5h2.173V59.658a2.734,2.734,0,0,1,2.812-2.812c2.045,0,2.045,1.789,2.045,2.812V69.5h2.173V59.4c0-1.662,0-4.474-3.707-4.474a3.878,3.878,0,0,0-3.451,2.045h0V55.313H82.406V69.5Zm-1.406-6.9V61.7c0-3.068-.383-6.774-4.729-6.774s-5.113,4.09-5.113,7.669c0,4.857,1.406,7.285,4.985,7.285C80.105,69.884,81,66.3,81,64.9H78.827c0,1.023-.256,3.323-2.428,3.323-2.684,0-2.684-3.323-2.684-5.5h7.413Zm-7.413-1.789V60.3c0-.895.256-3.707,2.556-3.707,1.917,0,2.428,1.917,2.428,3.451v.767ZM53.9,69.5h2.173V59.658a2.626,2.626,0,0,1,2.684-2.812c1.789,0,1.917,1.789,1.917,2.812V69.5H62.85V59.658a2.626,2.626,0,0,1,2.684-2.812c1.789,0,1.917,1.789,1.917,2.812V69.5h2.173V59.4c0-1.662,0-4.474-3.707-4.474a3.939,3.939,0,0,0-3.323,2.3,2.805,2.805,0,0,0-3.068-2.3,3.878,3.878,0,0,0-3.451,2.045h0V55.313H53.9V69.5Zm-1.534-6.9V61.7c0-3.068-.383-6.774-4.729-6.774s-5.113,4.09-5.113,7.669c0,4.857,1.406,7.285,4.985,7.285,3.834,0,4.729-3.579,4.729-4.985H50.068c0,1.023-.256,3.323-2.429,3.323-2.684,0-2.684-3.323-2.684-5.5h7.413Zm-7.413-1.789V60.3c0-.895.256-3.707,2.556-3.707,1.917,0,2.428,1.917,2.428,3.451v.767ZM38.821,69.5h2.173V50.583H38.821Zm-3.962-6.519c-.128,2.3-.511,4.985-3.323,4.985-3.2,0-3.707-3.579-3.707-7.925s.383-7.925,3.707-7.925c2.428,0,3.068,1.789,3.2,3.962h2.428c-.128-3.707-1.662-5.88-5.624-5.88-5.24,0-6.135,5.113-6.135,9.842s.767,9.842,6.135,9.842c4.09,0,5.5-3.323,5.752-6.9Z" transform="translate(7.065 -50.2)" fill="#00648a"></path><path id="Path_2720" data-name="Path 2720" d="M19.428,53.184h0l2.429,9.2H16.744Zm-6.9,16.233h2.429l1.406-5.24h6.007l1.406,5.24H26.2L21.09,50.5H18.022ZM2.3,52.417H5.113c2.173,0,3.451,1.15,3.451,3.068,0,3.707-2.556,3.707-3.834,3.707H2.3Zm-2.3,17H2.3V60.981H5.5c1.15,0,2.684.128,2.812,2.812l.128,2.94a5.194,5.194,0,0,0,.639,2.684h2.812c-.511-.383-.895-.895-1.023-2.94l-.128-3.2a3.182,3.182,0,0,0-2.684-3.2h0c2.173-.511,2.94-2.684,2.94-4.729,0-2.94-1.917-4.729-4.857-4.729H0Z" transform="translate(0 -50.117)" fill="#a2ac00"></path></g></g></svg> 